<svg width="366" height="84" viewBox="0 0 366 84" fill="none" xmlns="http://www.w3.org/2000/svg">
<path d="M12.0659 11.9437H353.934V15.9469H357.956L358 20H362V23.9531H366V75.9937H361.978V79.9968H358V84H12.0659V79.9968H8.04395V75.9937H4.02197V71.9906H0V23.9531H4.02197L4 19.95H8.04395V15.9469H12.0659V11.9437Z" fill="#F52048"/>
<path d="M17.9663 7.96252V11.9438H13.9776V15.925L9.98878 15.925V19.9063H6V59.7188H9.98878V63.7H13.9776V67.6813H17.9663V71.6625H349.034V67.6813H353.023V63.7H357.011V59.7188H361V19.9063H357.011V15.925L353.023 15.925V11.9438H349.034V7.96252H17.9663Z" fill="#FFF5C2"/>
<path d="M17.9663 0V3.98125L13.9775 3.98126V7.96251L9.98872 7.96252V11.9438L6 11.9438V51.7562H9.98878L9.98872 55.7375H13.9775V59.7187H17.9663V63.7H349.034V59.7187H353.022V55.7375H357.011V51.7562H361V11.9438L357.011 11.9438V7.96252L353.022 7.96251V3.98126L349.034 3.98125V0H17.9663Z" fill="#FFD700"/>
</svg>
