<svg width="366" height="73" viewBox="0 0 366 73" fill="none" xmlns="http://www.w3.org/2000/svg">
<path d="M12.0659 0H353.934V4.02198H357.956V8.04396L361.978 8.04395V12.0659H366V64.3516H361.978V68.3736H357.956V72.3956H12.0659V68.3736H8.04395V64.3516H4.02197V60.3297H0V12.0659H4.02197V8.04395L8.04395 8.04396V4.02198H12.0659V0Z" fill="#F52048"/>
<path d="M17.9663 4V8H13.9776V12L9.98878 12V16H6V56H9.98878V60H13.9776V64H17.9663V68H349.034V64H353.023V60H357.011V56H361V16H357.011V12L353.023 12V8H349.034V4H17.9663Z" fill="#827116"/>
<path d="M17.9663 10V13.5625L13.9775 13.5625V17.125L9.98872 17.125V20.6875L6 20.6875V56.3125H9.98878L9.98872 59.875H13.9775V63.4375H17.9663V67H349.034V63.4375H353.022V59.875H357.011V56.3125H361V20.6875L357.011 20.6875V17.125L353.022 17.125V13.5625L349.034 13.5625V10H17.9663Z" fill="#C8A900"/>
</svg>
